<svg data-v-fde0c5aa="" xmlns="http://www.w3.org/2000/svg" viewBox="0 0 300 300" class="font"><!----><defs data-v-fde0c5aa=""><!----></defs><defs data-v-fde0c5aa=""><!----></defs><g data-v-fde0c5aa="" id="d8fdee47-13c6-4eaa-ab61-de6e3d305f38" fill="#B5988F" transform="matrix(4.033551851242857,0,0,4.033551851242857,37.17651375221369,123.17688076623922)"><path d="M0.70 12.02L0.70 12.02L0.70 1.27L0.70 1.27Q0.70 1.05 0.92 1.05L0.92 1.05L4.29 1.05L4.29 1.05Q5.28 1.05 5.79 1.57L5.79 1.57L5.79 1.57Q6.30 2.09 6.30 3.08L6.30 3.08L6.30 10.23L6.30 10.23Q6.30 11.22 5.79 11.74L5.79 11.74L5.79 11.74Q5.28 12.25 4.29 12.25L4.29 12.25L0.92 12.25L0.92 12.25Q0.70 12.25 0.70 12.02ZM2.60 2.90L2.60 10.40L3.89 10.40L3.89 10.40Q4.45 10.40 4.45 9.84L4.45 9.84L4.45 3.47L4.45 3.47Q4.45 2.90 3.89 2.90L3.89 2.90L2.60 2.90ZM7.70 2.67L7.70 12.02L7.70 12.02Q7.70 12.25 7.92 12.25L7.92 12.25L9.38 12.25L9.38 12.25Q9.48 12.25 9.54 12.19L9.54 12.19L9.54 12.19Q9.60 12.13 9.60 12.02L9.60 12.02L9.60 2.67L9.60 2.67Q9.60 2.57 9.54 2.51L9.54 2.51L9.54 2.51Q9.48 2.45 9.38 2.45L9.38 2.45L7.92 2.45L7.92 2.45Q7.70 2.45 7.70 2.67L7.70 2.67ZM11.00 10.23L11.00 10.23L11.00 4.46L11.00 4.46Q11.00 3.47 11.51 2.96L11.51 2.96L11.51 2.96Q12.02 2.45 13.02 2.45L13.02 2.45L14.59 2.45L14.59 2.45Q15.57 2.45 16.08 2.96L16.08 2.96L16.08 2.96Q16.60 3.48 16.60 4.46L16.60 4.46L16.60 5.50L16.60 5.50Q16.60 5.61 16.54 5.67L16.54 5.67L16.54 5.67Q16.48 5.73 16.38 5.73L16.38 5.73L15.06 5.73L15.06 5.73Q14.84 5.73 14.84 5.50L14.84 5.50L14.84 4.82L14.84 4.82Q14.84 4.26 14.28 4.26L14.28 4.26L13.38 4.26L13.38 4.26Q12.82 4.26 12.82 4.82L12.82 4.82L12.82 9.88L12.82 9.88Q12.82 10.45 13.38 10.45L13.38 10.45L14.28 10.45L14.28 10.45Q14.84 10.45 14.84 9.88L14.84 9.88L14.84 8.67L14.11 8.67L14.11 8.67Q13.88 8.67 13.88 8.44L13.88 8.44L13.88 7.04L13.88 7.04Q13.88 6.82 14.11 6.82L14.11 6.82L16.38 6.82L16.38 6.82Q16.60 6.82 16.60 7.04L16.60 7.04L16.60 10.23L16.60 10.23Q16.60 11.22 16.08 11.73L16.08 11.73L16.08 11.73Q15.57 12.25 14.59 12.25L14.59 12.25L13.02 12.25L13.02 12.25Q12.02 12.25 11.51 11.74L11.51 11.74L11.51 11.74Q11.00 11.22 11.00 10.23ZM18.00 2.67L18.00 12.02L18.00 12.02Q18.00 12.25 18.22 12.25L18.22 12.25L19.68 12.25L19.68 12.25Q19.78 12.25 19.84 12.19L19.84 12.19L19.84 12.19Q19.91 12.13 19.91 12.02L19.91 12.02L19.91 2.67L19.91 2.67Q19.91 2.57 19.84 2.51L19.84 2.51L19.84 2.51Q19.78 2.45 19.68 2.45L19.68 2.45L18.22 2.45L18.22 2.45Q18.00 2.45 18.00 2.67L18.00 2.67ZM21.30 12.02L21.30 12.02L21.30 1.27L21.30 1.27Q21.30 1.05 21.53 1.05L21.53 1.05L24.89 1.05L24.89 1.05Q25.88 1.05 26.39 1.57L26.39 1.57L26.39 1.57Q26.91 2.09 26.91 3.08L26.91 3.08L26.91 10.23L26.91 10.23Q26.91 11.22 26.39 11.74L26.39 11.74L26.39 11.74Q25.88 12.25 24.89 12.25L24.89 12.25L21.53 12.25L21.53 12.25Q21.30 12.25 21.30 12.02ZM23.21 2.90L23.21 10.40L24.49 10.40L24.49 10.40Q25.05 10.40 25.05 9.84L25.05 9.84L25.05 3.47L25.05 3.47Q25.05 2.90 24.49 2.90L24.49 2.90L23.21 2.90ZM28.30 12.02L28.30 12.02L28.30 2.67L28.30 2.67Q28.30 2.57 28.36 2.51L28.36 2.51L28.36 2.51Q28.42 2.45 28.51 2.45L28.51 2.45L33.67 2.45L33.67 2.45Q33.89 2.45 33.89 2.67L33.89 2.67L33.89 4.07L33.89 4.07Q33.89 4.31 33.67 4.31L33.67 4.31L30.21 4.31L30.21 6.47L32.84 6.47L32.84 6.47Q33.07 6.47 33.07 6.71L33.07 6.71L33.07 8.09L33.07 8.09Q33.07 8.33 32.84 8.33L32.84 8.33L30.21 8.33L30.21 10.40L33.67 10.40L33.67 10.40Q33.80 10.40 33.84 10.45L33.84 10.45L33.84 10.45Q33.89 10.50 33.89 10.62L33.89 10.62L33.89 12.02L33.89 12.02Q33.89 12.25 33.67 12.25L33.67 12.25L28.51 12.25L28.51 12.25Q28.42 12.25 28.36 12.19L28.36 12.19L28.36 12.19Q28.30 12.13 28.30 12.02ZM34.73 12.01L34.73 12.01L37.06 2.65L37.06 2.65Q37.10 2.45 37.30 2.45L37.30 2.45L39.25 2.45L39.25 2.45Q39.44 2.45 39.48 2.65L39.48 2.65L41.81 12.01L41.81 12.01Q41.82 12.06 41.82 12.09L41.82 12.09L41.82 12.09Q41.82 12.25 41.61 12.25L41.61 12.25L40.25 12.25L40.25 12.25Q40.07 12.25 40.03 12.05L40.03 12.05L39.58 10.29L36.95 10.29L36.52 12.05L36.52 12.05Q36.48 12.25 36.29 12.25L36.29 12.25L34.92 12.25L34.92 12.25Q34.72 12.25 34.72 12.10L34.72 12.10L34.72 12.10Q34.72 12.06 34.73 12.01ZM38.27 4.86L37.39 8.67L39.15 8.67L38.27 4.86ZM42.94 2.67L42.94 12.02L42.94 12.02Q42.94 12.25 43.16 12.25L43.16 12.25L47.61 12.25L47.61 12.25Q47.84 12.25 47.84 12.02L47.84 12.02L47.84 10.62L47.84 10.62Q47.84 10.40 47.61 10.40L47.61 10.40L44.84 10.40L44.84 2.67L44.84 2.67Q44.84 2.45 44.62 2.45L44.62 2.45L43.16 2.45L43.16 2.45Q43.06 2.45 43.00 2.51L43.00 2.51L43.00 2.51Q42.94 2.57 42.94 2.67L42.94 2.67ZM48.98 12.15L48.98 12.15L48.98 12.15Q48.96 12.11 48.96 12.07L48.96 12.07L48.96 12.07Q48.96 12.00 49 11.92L49 11.92L52.57 4.30L49.68 4.30L49.68 4.30Q49.58 4.30 49.52 4.24L49.52 4.24L49.52 4.24Q49.46 4.18 49.46 4.07L49.46 4.07L49.46 2.69L49.46 2.69Q49.46 2.47 49.68 2.45L49.68 2.45L54.99 2.45L54.99 2.45Q55.17 2.45 55.22 2.54L55.22 2.54L55.22 2.54Q55.25 2.58 55.24 2.64L55.24 2.64L55.24 2.64Q55.24 2.71 55.20 2.79L55.20 2.79L51.63 10.53L54.69 10.53L54.69 10.53Q54.92 10.53 54.92 10.75L54.92 10.75L54.92 12.01L54.92 12.01Q54.92 12.23 54.69 12.25L54.69 12.25L49.21 12.25L49.21 12.25Q49.03 12.25 48.98 12.15Z"></path></g><!----><!----></svg>